<?xml version="1.0" encoding="UTF-8" standalone="no"?>
<!-- Generator: Adobe Illustrator 25.4.1, SVG Export Plug-In . SVG Version: 6.00 Build 0)  -->

<svg
   version="1.1"
   x="0px"
   y="0px"
   viewBox="0 0 248.87501 247.625"
   xml:space="preserve"
   id="svg3"
   sodipodi:docname="logo.svg"
   width="248.87502"
   height="247.625"
   inkscape:version="1.4.2 (ebf0e940d0, 2025-05-08)"
   xmlns:inkscape="http://www.inkscape.org/namespaces/inkscape"
   xmlns:sodipodi="http://sodipodi.sourceforge.net/DTD/sodipodi-0.dtd"
   xmlns="http://www.w3.org/2000/svg"
   xmlns:svg="http://www.w3.org/2000/svg"><defs
   id="defs3">
	
	
	
</defs><sodipodi:namedview
   id="namedview3"
   pagecolor="#ffffff"
   bordercolor="#000000"
   borderopacity="0.25"
   inkscape:showpageshadow="2"
   inkscape:pageopacity="0.0"
   inkscape:pagecheckerboard="0"
   inkscape:deskcolor="#d1d1d1"
   inkscape:zoom="2.0000001"
   inkscape:cx="56.999998"
   inkscape:cy="75.249998"
   inkscape:window-width="1920"
   inkscape:window-height="1029"
   inkscape:window-x="0"
   inkscape:window-y="27"
   inkscape:window-maximized="1"
   inkscape:current-layer="svg3"
   showguides="true" />
<style
   type="text/css"
   id="style1">
	.st0{display:none;}
	.st1{fill:#A1C9E8;}
	.st2{fill:#0075B3;}
	.st3{fill:#5499CB;}
</style>

<path
   class="st1"
   d="m 19.495247,128.69643 h 78.398318 c 0,0 18.081165,0.1264 17.935905,17.87992 0.14331,13.43176 0.0759,79.7008 0.0759,79.7008 0,0 0.9212,21.35611 -24.721372,21.34785 -20.768307,-0.006 -70.20672,0 -70.20672,0 0,0 -21.18741327,-1.95871 -20.97570189,-23.95648 0.21171139,-21.99777 0,-56.85267 0,-56.85267 v -16.55691 c -0.01628388,0 0.84684462,-18.9509 19.49372289,-21.56251 z"
   id="path1"
   sodipodi:nodetypes="ccccscscccc"
   style="stroke-width:1.65116" /><path
   class="st2"
   d="m 227.6713,0.08928574 c 0,0 21.20369,-0.1422987 21.20369,20.08928526 V 96.68527 c 0,0 0.13761,19.65402 -21.20369,19.65402 H 191.11852 V 85.418529 c 0,0 2.85786,-30.200898 -25.80435,-30.200898 -11.5465,0 -29.52558,-0.103794 -29.52558,-0.103794 V 23.376115 c 0,0 -1.56442,-23.28682936 20.58485,-23.28682936 17.65347,-0.2008927 71.29786,0 71.29786,1e-7 z"
   id="path2"
   sodipodi:nodetypes="csccccscccc"
   style="stroke-width:1.65116" /><path
   class="st3"
   d="m 89.701963,63.975444 h 71.721277 c 0,0 20.88345,0.361152 20.58485,22.650675 -0.21171,15.803571 0,70.094881 0,70.094881 0,0 -2.29625,24.15734 -17.88146,24.15734 h -38.87346 v -32.05913 c 0,0 2.13978,-29.28015 -27.652745,-29.28015 -0.716993,0 -30.356139,-0.43526 -30.356139,-0.43526 V 86.827008 c 0,0.01678 2.915102,-22.851564 22.457677,-22.851564 z"
   id="path3"
   sodipodi:nodetypes="scscsccsccs"
   style="stroke-width:1.65116" />
</svg>
